<svg width="200" height="61" viewBox="0 0 200 61" fill="none" xmlns="http://www.w3.org/2000/svg">
<rect y="0.346191" width="200" height="60.0389" rx="5" fill="#333333"/>
<path d="M77.253 47.0117L80.979 35.2757H83.931L87.657 47.0117H85.047L83.427 40.9637C83.259 40.3637 83.091 39.7337 82.923 39.0737C82.767 38.4137 82.605 37.7717 82.437 37.1477H82.365C82.221 37.7717 82.065 38.4137 81.897 39.0737C81.741 39.7337 81.579 40.3637 81.411 40.9637L79.773 47.0117H77.253ZM79.629 44.0957V42.1697H85.245V44.0957H79.629ZM88.7795 50.3777V38.1017H90.7955L90.9755 39.0017H91.0475C91.4075 38.6897 91.8095 38.4257 92.2535 38.2097C92.6975 37.9937 93.1535 37.8857 93.6215 37.8857C94.3535 37.8857 94.9775 38.0777 95.4935 38.4617C96.0095 38.8337 96.4055 39.3617 96.6815 40.0457C96.9695 40.7177 97.1135 41.5097 97.1135 42.4217C97.1135 43.4417 96.9335 44.3117 96.5735 45.0317C96.2135 45.7397 95.7455 46.2857 95.1695 46.6697C94.6055 47.0417 93.9995 47.2277 93.3515 47.2277C92.9675 47.2277 92.5895 47.1497 92.2175 46.9937C91.8455 46.8257 91.4975 46.5917 91.1735 46.2917L91.2455 47.7137V50.3777H88.7795ZM92.7935 45.2117C93.1175 45.2117 93.4175 45.1157 93.6935 44.9237C93.9695 44.7197 94.1855 44.4137 94.3415 44.0057C94.4975 43.5977 94.5755 43.0757 94.5755 42.4397C94.5755 41.8997 94.5155 41.4437 94.3955 41.0717C94.2755 40.6877 94.0895 40.3997 93.8375 40.2077C93.5975 40.0157 93.2915 39.9197 92.9195 39.9197C92.6315 39.9197 92.3555 39.9857 92.0915 40.1177C91.8275 40.2497 91.5455 40.4717 91.2455 40.7837V44.5817C91.5095 44.8097 91.7735 44.9717 92.0375 45.0677C92.3135 45.1637 92.5655 45.2117 92.7935 45.2117ZM99.0451 50.3777V38.1017H101.061L101.241 39.0017H101.313C101.673 38.6897 102.075 38.4257 102.519 38.2097C102.963 37.9937 103.419 37.8857 103.887 37.8857C104.619 37.8857 105.243 38.0777 105.759 38.4617C106.275 38.8337 106.671 39.3617 106.947 40.0457C107.235 40.7177 107.379 41.5097 107.379 42.4217C107.379 43.4417 107.199 44.3117 106.839 45.0317C106.479 45.7397 106.011 46.2857 105.435 46.6697C104.871 47.0417 104.265 47.2277 103.617 47.2277C103.233 47.2277 102.855 47.1497 102.483 46.9937C102.111 46.8257 101.763 46.5917 101.439 46.2917L101.511 47.7137V50.3777H99.0451ZM103.059 45.2117C103.383 45.2117 103.683 45.1157 103.959 44.9237C104.235 44.7197 104.451 44.4137 104.607 44.0057C104.763 43.5977 104.841 43.0757 104.841 42.4397C104.841 41.8997 104.781 41.4437 104.661 41.0717C104.541 40.6877 104.355 40.3997 104.103 40.2077C103.863 40.0157 103.557 39.9197 103.185 39.9197C102.897 39.9197 102.621 39.9857 102.357 40.1177C102.093 40.2497 101.811 40.4717 101.511 40.7837V44.5817C101.775 44.8097 102.039 44.9717 102.303 45.0677C102.579 45.1637 102.831 45.2117 103.059 45.2117ZM111.615 47.2277C111.051 47.2277 110.601 47.1137 110.265 46.8857C109.929 46.6457 109.683 46.3157 109.527 45.8957C109.383 45.4757 109.311 44.9777 109.311 44.4017V34.3757H111.777V44.5097C111.777 44.7737 111.825 44.9597 111.921 45.0677C112.029 45.1757 112.137 45.2297 112.245 45.2297C112.305 45.2297 112.353 45.2297 112.389 45.2297C112.437 45.2177 112.497 45.2057 112.569 45.1937L112.875 47.0117C112.731 47.0717 112.557 47.1197 112.353 47.1557C112.149 47.2037 111.903 47.2277 111.615 47.2277ZM118.315 47.2277C117.475 47.2277 116.713 47.0417 116.029 46.6697C115.357 46.2977 114.823 45.7697 114.427 45.0857C114.031 44.3897 113.833 43.5497 113.833 42.5657C113.833 41.6057 114.031 40.7777 114.427 40.0817C114.835 39.3857 115.357 38.8457 115.993 38.4617C116.629 38.0777 117.301 37.8857 118.009 37.8857C118.837 37.8857 119.527 38.0717 120.079 38.4437C120.643 38.8157 121.063 39.3257 121.339 39.9737C121.627 40.6097 121.771 41.3357 121.771 42.1517C121.771 42.3677 121.759 42.5837 121.735 42.7997C121.711 43.0037 121.687 43.1597 121.663 43.2677H115.777L115.759 41.6297H119.647C119.647 41.0777 119.521 40.6337 119.269 40.2977C119.017 39.9497 118.615 39.7757 118.063 39.7757C117.739 39.7757 117.427 39.8657 117.127 40.0457C116.827 40.2257 116.581 40.5257 116.389 40.9457C116.197 41.3537 116.101 41.8937 116.101 42.5657C116.101 43.2497 116.221 43.7957 116.461 44.2037C116.713 44.5997 117.031 44.8877 117.415 45.0677C117.799 45.2477 118.207 45.3377 118.639 45.3377C118.999 45.3377 119.335 45.2897 119.647 45.1937C119.971 45.0857 120.295 44.9357 120.619 44.7437L121.429 46.2377C120.985 46.5377 120.487 46.7777 119.935 46.9577C119.395 47.1377 118.855 47.2277 118.315 47.2277ZM130.985 47.2277C130.217 47.2277 129.449 47.0837 128.681 46.7957C127.925 46.4957 127.253 46.0697 126.665 45.5177L128.087 43.8257C128.507 44.2097 128.975 44.5157 129.491 44.7437C130.019 44.9717 130.535 45.0857 131.039 45.0857C131.627 45.0857 132.065 44.9777 132.353 44.7617C132.653 44.5337 132.803 44.2217 132.803 43.8257C132.803 43.5617 132.731 43.3457 132.587 43.1777C132.443 43.0097 132.239 42.8657 131.975 42.7457C131.723 42.6137 131.423 42.4757 131.075 42.3317L129.527 41.6657C129.119 41.4977 128.735 41.2757 128.375 40.9997C128.015 40.7237 127.721 40.3817 127.493 39.9737C127.265 39.5537 127.151 39.0617 127.151 38.4977C127.151 37.8497 127.325 37.2677 127.673 36.7517C128.033 36.2357 128.519 35.8277 129.131 35.5277C129.755 35.2157 130.463 35.0597 131.255 35.0597C131.939 35.0597 132.605 35.1917 133.253 35.4557C133.913 35.7197 134.489 36.0917 134.981 36.5717L133.721 38.1377C133.349 37.8377 132.965 37.6037 132.569 37.4357C132.173 37.2677 131.735 37.1837 131.255 37.1837C130.775 37.1837 130.385 37.2857 130.085 37.4897C129.797 37.6937 129.653 37.9817 129.653 38.3537C129.653 38.6057 129.731 38.8157 129.887 38.9837C130.043 39.1517 130.259 39.3017 130.535 39.4337C130.823 39.5537 131.135 39.6857 131.471 39.8297L132.983 40.4417C133.463 40.6337 133.877 40.8737 134.225 41.1617C134.573 41.4497 134.843 41.7977 135.035 42.2057C135.239 42.6017 135.341 43.0757 135.341 43.6277C135.341 44.2757 135.167 44.8757 134.819 45.4277C134.483 45.9677 133.985 46.4057 133.325 46.7417C132.677 47.0657 131.897 47.2277 130.985 47.2277ZM140.502 47.2277C139.422 47.2277 138.648 46.9157 138.18 46.2917C137.724 45.6677 137.496 44.8517 137.496 43.8437V40.0457H136.272V38.2097L137.64 38.1017L137.928 35.7257H139.962V38.1017H142.14V40.0457H139.962V43.8257C139.962 44.3297 140.064 44.7017 140.268 44.9417C140.484 45.1697 140.778 45.2837 141.15 45.2837C141.306 45.2837 141.462 45.2657 141.618 45.2297C141.774 45.1937 141.912 45.1517 142.032 45.1037L142.428 46.9037C142.188 46.9757 141.906 47.0477 141.582 47.1197C141.258 47.1917 140.898 47.2277 140.502 47.2277ZM147.702 47.2277C146.946 47.2277 146.238 47.0477 145.578 46.6877C144.93 46.3157 144.402 45.7817 143.994 45.0857C143.586 44.3897 143.382 43.5497 143.382 42.5657C143.382 41.5817 143.586 40.7417 143.994 40.0457C144.402 39.3497 144.93 38.8157 145.578 38.4437C146.238 38.0717 146.946 37.8857 147.702 37.8857C148.446 37.8857 149.142 38.0717 149.79 38.4437C150.45 38.8157 150.984 39.3497 151.392 40.0457C151.8 40.7417 152.004 41.5817 152.004 42.5657C152.004 43.5497 151.8 44.3897 151.392 45.0857C150.984 45.7817 150.45 46.3157 149.79 46.6877C149.142 47.0477 148.446 47.2277 147.702 47.2277ZM147.702 45.2297C148.086 45.2297 148.41 45.1217 148.674 44.9057C148.938 44.6897 149.136 44.3837 149.268 43.9877C149.4 43.5797 149.466 43.1057 149.466 42.5657C149.466 42.0257 149.4 41.5577 149.268 41.1617C149.136 40.7537 148.938 40.4417 148.674 40.2257C148.41 39.9977 148.086 39.8837 147.702 39.8837C147.306 39.8837 146.976 39.9977 146.712 40.2257C146.448 40.4417 146.25 40.7537 146.118 41.1617C145.986 41.5577 145.92 42.0257 145.92 42.5657C145.92 43.1057 145.986 43.5797 146.118 43.9877C146.25 44.3837 146.448 44.6897 146.712 44.9057C146.976 45.1217 147.306 45.2297 147.702 45.2297ZM153.871 47.0117V38.1017H155.887L156.067 39.6677H156.139C156.463 39.0797 156.847 38.6357 157.291 38.3357C157.747 38.0357 158.203 37.8857 158.659 37.8857C158.899 37.8857 159.103 37.9037 159.271 37.9397C159.439 37.9637 159.583 38.0057 159.703 38.0657L159.289 40.2077C159.133 40.1597 158.983 40.1237 158.839 40.0997C158.707 40.0757 158.545 40.0637 158.353 40.0637C158.005 40.0637 157.645 40.1897 157.273 40.4417C156.901 40.6937 156.589 41.1377 156.337 41.7737V47.0117H153.871ZM164.827 47.2277C163.987 47.2277 163.225 47.0417 162.541 46.6697C161.869 46.2977 161.335 45.7697 160.939 45.0857C160.543 44.3897 160.345 43.5497 160.345 42.5657C160.345 41.6057 160.543 40.7777 160.939 40.0817C161.347 39.3857 161.869 38.8457 162.505 38.4617C163.141 38.0777 163.813 37.8857 164.521 37.8857C165.349 37.8857 166.039 38.0717 166.591 38.4437C167.155 38.8157 167.575 39.3257 167.851 39.9737C168.139 40.6097 168.283 41.3357 168.283 42.1517C168.283 42.3677 168.271 42.5837 168.247 42.7997C168.223 43.0037 168.199 43.1597 168.175 43.2677H162.289L162.271 41.6297H166.159C166.159 41.0777 166.033 40.6337 165.781 40.2977C165.529 39.9497 165.127 39.7757 164.575 39.7757C164.251 39.7757 163.939 39.8657 163.639 40.0457C163.339 40.2257 163.093 40.5257 162.901 40.9457C162.709 41.3537 162.613 41.8937 162.613 42.5657C162.613 43.2497 162.733 43.7957 162.973 44.2037C163.225 44.5997 163.543 44.8877 163.927 45.0677C164.311 45.2477 164.719 45.3377 165.151 45.3377C165.511 45.3377 165.847 45.2897 166.159 45.1937C166.483 45.0857 166.807 44.9357 167.131 44.7437L167.941 46.2377C167.497 46.5377 166.999 46.7777 166.447 46.9577C165.907 47.1377 165.367 47.2277 164.827 47.2277Z" fill="#FBF9FC"/>
<path d="M30.018 32.7565C29.699 27.2796 33.6417 21.6895 39.4395 21.6895C40.7746 21.6895 41.38 21.9968 42.8342 22.4449C43.6127 22.6848 44.932 23.3514 45.6949 23.3514C46.4578 23.3514 47.3732 22.8604 48.6081 22.4119C50.3599 21.7757 51.396 21.7076 52.4081 21.6895C55.8029 21.6895 58.2952 23.0948 59.8842 25.2777C57.2614 26.9679 55.8792 29.0171 55.8029 32.341C55.8029 35.3627 57.7482 38.3089 60.8759 39.6309C60.1131 42.8037 55.9936 49.3382 52.5988 49.3382C51.4332 49.2722 50.7167 49.092 49.3567 48.5828C48.3432 48.1429 46.9918 47.8274 46.1145 47.8274C45.1991 47.7896 44.1731 48.0834 42.8914 48.5828C41.8043 49.0064 41.1566 49.2468 39.6683 49.3382C36.8457 49.5117 30.5836 42.4638 30.018 32.7565Z" fill="#FBF9FC"/>
<path d="M47.5258 15.7971C45.9513 17.4762 45.3516 19.6876 45.466 21.6895C48.0598 21.5006 49.8525 20.443 51.4927 18.4789C53.1328 16.5148 53.1449 15.0875 53.1328 13.002C51.2238 13.3096 49.0134 14.2107 47.5258 15.7971Z" fill="#FBF9FC"/>
<path d="M78.631 24V14.802H80.885C81.8277 14.802 82.6164 14.984 83.251 15.348C83.895 15.7027 84.3757 16.2207 84.693 16.902C85.0197 17.5833 85.183 18.4047 85.183 19.366C85.183 20.3273 85.0197 21.158 84.693 21.858C84.3757 22.5487 83.8997 23.0807 83.265 23.454C82.6304 23.818 81.851 24 80.927 24H78.631ZM79.667 23.146H80.801C81.5477 23.146 82.1637 22.992 82.649 22.684C83.1437 22.376 83.5124 21.942 83.755 21.382C83.9977 20.822 84.119 20.15 84.119 19.366C84.119 18.5913 83.9977 17.9287 83.755 17.378C83.5124 16.818 83.1437 16.3933 82.649 16.104C82.1637 15.8053 81.5477 15.656 80.801 15.656H79.667V23.146ZM89.709 24.168C89.1583 24.168 88.645 24.028 88.169 23.748C87.693 23.468 87.3103 23.0667 87.021 22.544C86.7316 22.012 86.587 21.368 86.587 20.612C86.587 19.856 86.7316 19.212 87.021 18.68C87.3103 18.148 87.693 17.742 88.169 17.462C88.645 17.182 89.1583 17.042 89.709 17.042C90.2596 17.042 90.7683 17.182 91.235 17.462C91.711 17.742 92.0936 18.148 92.383 18.68C92.6816 19.212 92.831 19.856 92.831 20.612C92.831 21.368 92.6816 22.012 92.383 22.544C92.0936 23.0667 91.711 23.468 91.235 23.748C90.7683 24.028 90.2596 24.168 89.709 24.168ZM89.709 23.314C90.1196 23.314 90.479 23.202 90.787 22.978C91.1043 22.754 91.347 22.4413 91.515 22.04C91.6923 21.6293 91.781 21.1533 91.781 20.612C91.781 20.08 91.6923 19.6087 91.515 19.198C91.347 18.7873 91.1043 18.47 90.787 18.246C90.479 18.0127 90.1196 17.896 89.709 17.896C89.3076 17.896 88.9483 18.0127 88.631 18.246C88.323 18.47 88.0803 18.7873 87.903 19.198C87.735 19.6087 87.651 20.08 87.651 20.612C87.651 21.1533 87.735 21.6293 87.903 22.04C88.0803 22.4413 88.323 22.754 88.631 22.978C88.9483 23.202 89.3076 23.314 89.709 23.314ZM95.7435 24L93.8255 17.21H94.8755L95.9395 21.256C96.0142 21.5733 96.0842 21.886 96.1495 22.194C96.2242 22.4927 96.2895 22.8053 96.3455 23.132H96.4015C96.4855 22.8053 96.5648 22.4927 96.6395 22.194C96.7142 21.886 96.7935 21.5733 96.8775 21.256L97.9695 17.21H98.9915L100.098 21.256C100.182 21.5733 100.261 21.886 100.336 22.194C100.42 22.4927 100.499 22.8053 100.574 23.132H100.63C100.714 22.8053 100.788 22.4927 100.854 22.194C100.928 21.886 101.003 21.5733 101.078 21.256L102.114 17.21H103.094L101.246 24H99.9855L98.9495 20.206C98.8748 19.8793 98.8002 19.5573 98.7255 19.24C98.6508 18.9227 98.5715 18.596 98.4875 18.26H98.4315C98.3568 18.596 98.2775 18.9273 98.1935 19.254C98.1188 19.5807 98.0348 19.9073 97.9415 20.234L96.9335 24H95.7435ZM104.619 24V17.21H105.459L105.543 18.218H105.585C105.912 17.882 106.257 17.602 106.621 17.378C106.994 17.154 107.41 17.042 107.867 17.042C108.586 17.042 109.108 17.266 109.435 17.714C109.771 18.162 109.939 18.82 109.939 19.688V24H108.917V19.814C108.917 19.1607 108.81 18.6847 108.595 18.386C108.39 18.0873 108.049 17.938 107.573 17.938C107.218 17.938 106.896 18.0313 106.607 18.218C106.318 18.3953 105.991 18.666 105.627 19.03V24H104.619ZM113.327 24.168C113.075 24.168 112.865 24.112 112.697 24C112.529 23.8973 112.407 23.7433 112.333 23.538C112.258 23.3233 112.221 23.062 112.221 22.754V14.004H113.229V22.838C113.229 23.006 113.261 23.1273 113.327 23.202C113.392 23.2767 113.467 23.314 113.551 23.314C113.579 23.314 113.611 23.314 113.649 23.314C113.686 23.3047 113.737 23.2953 113.803 23.286L113.943 24.07C113.868 24.0887 113.779 24.1073 113.677 24.126C113.583 24.154 113.467 24.168 113.327 24.168ZM118.311 24.168C117.76 24.168 117.247 24.028 116.771 23.748C116.295 23.468 115.912 23.0667 115.623 22.544C115.333 22.012 115.189 21.368 115.189 20.612C115.189 19.856 115.333 19.212 115.623 18.68C115.912 18.148 116.295 17.742 116.771 17.462C117.247 17.182 117.76 17.042 118.311 17.042C118.861 17.042 119.37 17.182 119.837 17.462C120.313 17.742 120.695 18.148 120.985 18.68C121.283 19.212 121.433 19.856 121.433 20.612C121.433 21.368 121.283 22.012 120.985 22.544C120.695 23.0667 120.313 23.468 119.837 23.748C119.37 24.028 118.861 24.168 118.311 24.168ZM118.311 23.314C118.721 23.314 119.081 23.202 119.389 22.978C119.706 22.754 119.949 22.4413 120.117 22.04C120.294 21.6293 120.383 21.1533 120.383 20.612C120.383 20.08 120.294 19.6087 120.117 19.198C119.949 18.7873 119.706 18.47 119.389 18.246C119.081 18.0127 118.721 17.896 118.311 17.896C117.909 17.896 117.55 18.0127 117.233 18.246C116.925 18.47 116.682 18.7873 116.505 19.198C116.337 19.6087 116.253 20.08 116.253 20.612C116.253 21.1533 116.337 21.6293 116.505 22.04C116.682 22.4413 116.925 22.754 117.233 22.978C117.55 23.202 117.909 23.314 118.311 23.314ZM124.821 24.168C124.448 24.168 124.112 24.0933 123.813 23.944C123.514 23.7947 123.276 23.58 123.099 23.3C122.922 23.0107 122.833 22.6607 122.833 22.25C122.833 21.5127 123.169 20.948 123.841 20.556C124.522 20.1547 125.596 19.8747 127.061 19.716C127.061 19.408 127.019 19.114 126.935 18.834C126.86 18.554 126.716 18.33 126.501 18.162C126.296 17.9847 125.997 17.896 125.605 17.896C125.194 17.896 124.812 17.9753 124.457 18.134C124.112 18.2927 123.808 18.4607 123.547 18.638L123.141 17.938C123.337 17.8073 123.57 17.672 123.841 17.532C124.112 17.392 124.41 17.2753 124.737 17.182C125.064 17.0887 125.409 17.042 125.773 17.042C126.324 17.042 126.767 17.1587 127.103 17.392C127.439 17.6253 127.682 17.9473 127.831 18.358C127.99 18.7687 128.069 19.2493 128.069 19.8V24H127.229L127.145 23.174H127.103C126.776 23.4447 126.422 23.678 126.039 23.874C125.656 24.07 125.25 24.168 124.821 24.168ZM125.087 23.342C125.442 23.342 125.768 23.2627 126.067 23.104C126.375 22.936 126.706 22.698 127.061 22.39V20.402C126.258 20.4953 125.624 20.626 125.157 20.794C124.69 20.9527 124.354 21.1487 124.149 21.382C123.944 21.6153 123.841 21.886 123.841 22.194C123.841 22.5953 123.962 22.8893 124.205 23.076C124.457 23.2533 124.751 23.342 125.087 23.342ZM132.577 24.168C131.727 24.168 131.051 23.86 130.547 23.244C130.043 22.6187 129.791 21.7413 129.791 20.612C129.791 19.884 129.926 19.254 130.197 18.722C130.477 18.19 130.841 17.7793 131.289 17.49C131.737 17.1913 132.222 17.042 132.745 17.042C133.146 17.042 133.491 17.112 133.781 17.252C134.07 17.392 134.369 17.588 134.677 17.84L134.635 16.664V14.004H135.643V24H134.803L134.719 23.174H134.677C134.415 23.4447 134.103 23.678 133.739 23.874C133.384 24.07 132.997 24.168 132.577 24.168ZM132.801 23.3C133.127 23.3 133.44 23.2207 133.739 23.062C134.037 22.894 134.336 22.6513 134.635 22.334V18.652C134.327 18.3813 134.033 18.19 133.753 18.078C133.473 17.966 133.188 17.91 132.899 17.91C132.516 17.91 132.166 18.0267 131.849 18.26C131.541 18.484 131.293 18.8013 131.107 19.212C130.929 19.6133 130.841 20.08 130.841 20.612C130.841 21.4427 131.009 22.1007 131.345 22.586C131.69 23.062 132.175 23.3 132.801 23.3ZM142.278 24L139.8 17.21H140.85L142.194 21.172C142.306 21.4987 142.413 21.83 142.516 22.166C142.628 22.502 142.735 22.8333 142.838 23.16H142.894C142.997 22.8333 143.104 22.502 143.216 22.166C143.328 21.83 143.435 21.4987 143.538 21.172L144.882 17.21H145.89L143.454 24H142.278ZM147.248 24V17.21H148.256V24H147.248ZM147.766 15.754C147.57 15.754 147.402 15.6887 147.262 15.558C147.131 15.4273 147.066 15.2547 147.066 15.04C147.066 14.8347 147.131 14.6713 147.262 14.55C147.402 14.4193 147.57 14.354 147.766 14.354C147.971 14.354 148.139 14.4193 148.27 14.55C148.401 14.6713 148.466 14.8347 148.466 15.04C148.466 15.2547 148.401 15.4273 148.27 15.558C148.139 15.6887 147.971 15.754 147.766 15.754ZM152.178 24.168C151.805 24.168 151.469 24.0933 151.17 23.944C150.872 23.7947 150.634 23.58 150.456 23.3C150.279 23.0107 150.19 22.6607 150.19 22.25C150.19 21.5127 150.526 20.948 151.198 20.556C151.88 20.1547 152.953 19.8747 154.418 19.716C154.418 19.408 154.376 19.114 154.292 18.834C154.218 18.554 154.073 18.33 153.858 18.162C153.653 17.9847 153.354 17.896 152.962 17.896C152.552 17.896 152.169 17.9753 151.814 18.134C151.469 18.2927 151.166 18.4607 150.904 18.638L150.498 17.938C150.694 17.8073 150.928 17.672 151.198 17.532C151.469 17.392 151.768 17.2753 152.094 17.182C152.421 17.0887 152.766 17.042 153.13 17.042C153.681 17.042 154.124 17.1587 154.46 17.392C154.796 17.6253 155.039 17.9473 155.188 18.358C155.347 18.7687 155.426 19.2493 155.426 19.8V24H154.586L154.502 23.174H154.46C154.134 23.4447 153.779 23.678 153.396 23.874C153.014 24.07 152.608 24.168 152.178 24.168ZM152.444 23.342C152.799 23.342 153.126 23.2627 153.424 23.104C153.732 22.936 154.064 22.698 154.418 22.39V20.402C153.616 20.4953 152.981 20.626 152.514 20.794C152.048 20.9527 151.712 21.1487 151.506 21.382C151.301 21.6153 151.198 21.886 151.198 22.194C151.198 22.5953 151.32 22.8893 151.562 23.076C151.814 23.2533 152.108 23.342 152.444 23.342Z" fill="#FBF9FC"/>
</svg>
