<svg width="502" height="331" viewBox="0 0 502 331" fill="none" xmlns="http://www.w3.org/2000/svg">
<rect width="400" height="233.65" rx="10" transform="matrix(0.944817 0.327599 -0.525072 0.851058 123.218 0.185547)" fill="url(#paint0_linear_2_430)"/>
<mask id="mask0_2_430" style="mask-type:alpha" maskUnits="userSpaceOnUse" x="0" y="0" width="501" height="330">
<rect width="399.576" height="233.65" transform="matrix(0.944817 0.327599 -0.525072 0.851058 123.218 0.185547)" fill="#ED713C"/>
</mask>
<g mask="url(#mask0_2_430)">
<path opacity="0.1" d="M198.836 279.6C183.948 303.732 143.174 322.035 77.8614 325.589C14.3756 329.043 -64.9003 317.801 -144.259 290.285C-223.618 262.768 -286.381 224.761 -323.98 186.257C-362.661 146.646 -370.459 111.501 -355.571 87.3687C-340.682 63.2362 -299.908 44.9334 -234.596 41.3798C-171.11 37.9256 -91.8339 49.1673 -12.475 76.6837C66.884 104.2 129.646 142.208 167.246 180.711C205.926 220.323 213.725 255.467 198.836 279.6Z" fill="#333333" stroke="#333333" stroke-width="36"/>
<path opacity="0.1" d="M894.555 232.868C874.404 265.529 827.583 289.08 761.021 296.943C695.204 304.717 614.695 296.309 535.79 268.95C456.886 241.591 396.205 201.045 361.488 158.412C326.377 115.296 319.997 73.2982 340.148 40.6371C360.299 7.97595 407.12 -15.575 473.682 -23.4376C539.499 -31.2121 620.007 -22.8034 698.912 4.55549C777.817 31.9144 838.498 72.4606 873.215 115.094C908.326 158.21 914.706 200.207 894.555 232.868Z" fill="#333333" stroke="#333333" stroke-width="36"/>
</g>
<path d="M322.094 279.151C324.315 279.921 326.624 278.739 328.376 275.9C330.114 273.082 329.805 270.987 327.602 270.223C325.394 269.458 323.071 270.635 321.325 273.455C319.576 276.29 319.87 278.374 322.094 279.151ZM322.791 278.021C321.489 277.57 321.431 276.122 322.767 273.955C324.103 271.799 325.621 270.882 326.918 271.332C328.209 271.78 328.265 273.242 326.934 275.4C325.597 277.566 324.087 278.471 322.791 278.021ZM327.437 280.829L328.955 281.355L337.771 275.3L338.486 274.141L332.126 271.936L331.434 273.057L336.291 274.741L336.252 274.804L327.437 280.829ZM344.053 275.578L342.799 275.143L333.298 284.443L334.552 284.878L344.053 275.578ZM339.63 285.057L345.962 287.252L346.654 286.131L342.323 284.629L342.362 284.566L345.386 283.426C348.137 282.433 349.112 281.842 349.71 280.873C350.569 279.481 349.968 277.978 348.154 277.349C346.355 276.726 344.393 277.319 343.416 278.901L344.802 279.382C345.372 278.449 346.415 278.071 347.453 278.431C348.43 278.77 348.838 279.569 348.305 280.432C347.833 281.198 346.986 281.572 345.345 282.2L340.215 284.109L339.63 285.057ZM351.028 289.152C353.028 289.866 355.166 289.026 356.187 287.361C357.215 285.704 356.61 284.051 354.942 283.473C353.928 283.121 352.778 283.257 351.833 283.818L351.763 283.793C352.981 281.827 354.528 280.946 355.938 281.435C356.863 281.756 357.132 282.465 356.886 283.253L358.318 283.75C358.943 282.302 358.362 280.889 356.642 280.292C354.406 279.517 351.944 280.764 350.085 283.777C348.112 286.965 349.326 288.547 351.028 289.152ZM351.702 288.051C350.584 287.663 350.289 286.533 350.889 285.56C351.492 284.593 352.869 284.043 353.977 284.428C355.076 284.809 355.391 285.888 354.767 286.89C354.14 287.915 352.801 288.432 351.702 288.051Z" fill="white"/>
<path d="M100.807 199.149L106.876 201.254L107.45 200.323L102.979 198.772L103.02 198.705L106.465 197.372C109.103 196.35 110.051 195.775 110.643 194.815C111.468 193.478 110.924 191.994 109.233 191.408C107.546 190.823 105.627 191.411 104.687 192.934L105.796 193.319C106.404 192.333 107.518 191.923 108.631 192.309C109.674 192.671 110.118 193.523 109.554 194.437C109.06 195.236 108.173 195.648 106.384 196.358L101.277 198.388L100.807 199.149ZM109.48 200L114.008 201.57L112.912 203.347L114.021 203.731L115.117 201.954L116.432 202.41L117.006 201.479L115.691 201.023L119.367 195.066L117.958 194.577L110.013 199.136L109.48 200ZM114.583 200.639L111.313 199.505L111.355 199.437L117.358 195.992L117.433 196.018L114.583 200.639ZM120.217 206.023C122.149 206.719 124.231 205.838 125.226 204.226C126.26 202.551 125.625 200.872 123.976 200.3C122.985 199.957 121.866 200.098 120.899 200.63L120.823 200.604C122.131 198.495 123.796 197.588 125.285 198.104C126.3 198.456 126.556 199.243 126.291 200.096L127.438 200.494C128.033 199.067 127.476 197.733 125.86 197.173C123.694 196.422 121.3 197.688 119.41 200.751C117.434 203.954 118.649 205.459 120.217 206.023ZM120.791 205.093C119.584 204.674 119.273 203.441 119.917 202.406C120.561 201.371 122.058 200.765 123.251 201.179C124.43 201.588 124.762 202.761 124.099 203.835C123.42 204.936 121.97 205.501 120.791 205.093ZM128.359 208.846C130.28 209.512 132.242 208.965 133.121 207.56C133.788 206.461 133.549 205.248 132.618 204.715L132.65 204.664C133.682 204.765 134.765 204.175 135.343 203.256C136.148 201.932 135.523 200.524 133.851 199.944C132.16 199.358 130.324 199.913 129.519 201.236C128.94 202.155 129.041 203.156 129.831 203.687L129.8 203.737C128.636 203.544 127.249 204.193 126.582 205.293C125.704 206.698 126.419 208.174 128.359 208.846ZM128.933 207.915C127.613 207.458 127.176 206.567 127.76 205.639C128.354 204.658 129.681 204.271 130.917 204.7C132.133 205.122 132.6 206.131 132.006 207.111C131.423 208.039 130.234 208.367 128.933 207.915ZM131.47 203.803C130.418 203.438 130.041 202.588 130.604 201.695C131.138 200.811 132.207 200.483 133.287 200.858C134.349 201.226 134.708 202.049 134.174 202.932C133.611 203.826 132.504 204.161 131.47 203.803Z" fill="white"/>
<circle cx="2.53967" cy="2.53967" r="2.53967" transform="matrix(0.944817 0.327599 -0.525072 0.851058 77.6868 184.934)" fill="white"/>
<circle cx="2.53967" cy="2.53967" r="2.53967" transform="matrix(0.944817 0.327599 -0.525072 0.851058 53.6914 176.614)" fill="white"/>
<circle cx="2.53967" cy="2.53967" r="2.53967" transform="matrix(0.944817 0.327599 -0.525072 0.851058 65.6887 180.774)" fill="white"/>
<circle cx="2.53967" cy="2.53967" r="2.53967" transform="matrix(0.944817 0.327599 -0.525072 0.851058 41.6938 172.454)" fill="white"/>
<path opacity="0.75" d="M63.2737 152.734C63.9719 151.048 63.1637 149.641 61.4203 149.036C59.2864 148.296 56.8239 149.19 55.3583 151.566C53.8927 153.941 54.5706 155.924 56.7126 156.667C58.5244 157.295 60.48 156.731 61.6559 155.356L60.402 154.917C59.6024 155.793 58.3944 156.008 57.3516 155.647C55.9384 155.157 55.4734 153.811 56.5944 151.994C57.7064 150.192 59.3802 149.57 60.8014 150.063C61.8523 150.427 62.4051 151.266 62.0175 152.299L63.2737 152.734ZM63.2971 158.976C64.3198 159.331 65.1841 159.063 65.6709 158.725L65.7193 158.742L65.2494 159.503L66.425 159.911L68.7073 156.212C69.7075 154.591 68.4894 153.777 67.507 153.436C66.3877 153.048 65.1064 153.097 64.0773 153.972L65.0654 154.597C65.4865 154.263 66.1724 154.039 66.9816 154.319C67.7587 154.589 67.9313 155.093 67.542 155.724L67.5263 155.75C67.2824 156.145 66.8359 155.981 65.6531 155.712C64.4054 155.429 63.0355 155.289 62.2547 156.554C61.5789 157.65 62.1214 158.569 63.2971 158.976ZM64.0958 158.196C63.4154 157.961 63.0942 157.515 63.4254 156.978C63.7834 156.398 64.4826 156.389 65.2306 156.547C65.6503 156.635 66.6345 156.862 66.9038 156.766L66.4608 157.484C66.0536 158.144 65.0983 158.544 64.0958 158.196ZM68.0285 160.467L69.2323 160.884L71.3311 157.483C71.7808 156.754 72.7294 156.444 73.5829 156.74C73.8325 156.827 74.0898 156.964 74.1707 157.023L74.8107 155.986C74.6988 155.93 74.468 155.836 74.315 155.783C73.5903 155.532 72.742 155.687 72.1473 156.207L72.0829 156.185L72.6289 155.3L71.4653 154.896L68.0285 160.467ZM79.0688 157.533L77.8005 157.093L78.624 155.758L77.4201 155.341L76.5967 156.676L75.6908 156.362L75.1538 157.232L76.0597 157.546L74.0303 160.835C73.402 161.846 73.9575 162.633 74.9189 162.944C75.3036 163.073 75.6015 163.097 75.7716 163.099L76.1068 162.128C76.0173 162.114 75.8482 162.095 75.655 162.028C75.2644 161.893 74.9857 161.655 75.3728 161.028L77.2635 157.963L78.5318 158.403L79.0688 157.533ZM78.6873 164.312C79.7099 164.667 80.5743 164.399 81.0611 164.061L81.1094 164.078L80.6396 164.84L81.8152 165.247L84.0975 161.548C85.0977 159.927 83.8796 159.113 82.8972 158.772C81.7779 158.384 80.4966 158.433 79.4675 159.309L80.4556 159.933C80.8767 159.599 81.5625 159.375 82.3718 159.655C83.1489 159.925 83.3215 160.429 82.9321 161.06L82.9165 161.086C82.6726 161.481 82.2261 161.317 81.0433 161.048C79.7956 160.765 78.4257 160.625 77.6448 161.891C76.9691 162.986 77.5116 163.905 78.6873 164.312ZM79.486 163.533C78.8056 163.297 78.4844 162.851 78.8156 162.314C79.1736 161.734 79.8728 161.725 80.6208 161.884C81.0405 161.972 82.0247 162.199 82.294 162.103L81.851 162.821C81.4437 163.481 80.4885 163.88 79.486 163.533ZM82.1211 157.772C82.3158 157.457 82.6746 157.295 82.9726 157.398C83.5443 157.597 83.3769 158.137 84.1378 158.401C84.8447 158.642 85.6943 158.342 86.1933 157.533L85.4292 157.211C85.2305 157.525 84.8694 157.691 84.5594 157.583C84.0199 157.396 84.0482 156.812 83.3919 156.584C82.6833 156.338 81.8198 156.668 81.3253 157.47L82.1211 157.772ZM85.9542 166.819C87.6976 167.423 89.5463 166.669 90.6091 164.946C91.6787 163.213 91.2485 161.668 89.5052 161.063C87.7619 160.459 85.9131 161.214 84.8436 162.947C83.7808 164.67 84.2109 166.214 85.9542 166.819ZM86.5199 165.91C85.3805 165.515 85.4017 164.435 86.0618 163.365C86.7196 162.299 87.8104 161.576 88.9498 161.971C90.0812 162.364 90.0533 163.455 89.3955 164.521C88.7354 165.591 87.6513 166.302 86.5199 165.91ZM95.4986 170.124C96.6259 170.515 97.4514 170.048 97.8881 169.768L97.9888 169.803L97.454 170.67L98.6297 171.077L103.212 163.65L102.008 163.233L100.306 165.992L100.233 165.967C100.228 165.547 100.207 164.774 99.0554 164.375C97.5616 163.857 95.8069 164.538 94.6926 166.344C93.5806 168.147 93.9968 169.603 95.4986 170.124ZM96.3349 169.291C95.2599 168.918 95.2261 167.872 95.9152 166.755C96.5977 165.649 97.6576 165.008 98.7447 165.385C99.7956 165.75 99.8826 166.718 99.1644 167.882C98.4417 169.053 97.3737 169.651 96.3349 169.291ZM102.944 172.71C104.293 173.177 105.616 172.91 106.449 172.098L105.424 171.518C104.882 171.969 104.193 172.055 103.509 171.818C102.478 171.461 102.157 170.619 102.787 169.534L107.184 171.058L107.421 170.674C108.663 168.661 107.811 167.411 106.41 166.925C104.687 166.327 102.822 167.116 101.766 168.828C100.699 170.558 101.12 172.077 102.944 172.71ZM103.292 168.723C103.828 167.949 104.887 167.484 105.866 167.824C106.8 168.147 107.027 168.983 106.505 169.837L103.292 168.723ZM112.538 176.036C114 176.543 115.434 176.081 116.236 175.042L115.064 174.636C114.54 175.185 113.801 175.36 113.112 175.122C112.094 174.769 111.91 173.776 112.659 172.561C113.395 171.368 114.527 170.849 115.533 171.198C116.298 171.463 116.497 172.06 116.304 172.627L117.475 173.033C118.04 171.864 117.482 170.764 116.077 170.277C114.334 169.672 112.477 170.464 111.428 172.165C110.392 173.844 110.743 175.414 112.538 176.036ZM116.436 177.251L117.639 177.669L119.738 174.267C120.188 173.538 121.136 173.228 121.99 173.524C122.24 173.611 122.497 173.749 122.578 173.807L123.218 172.77C123.106 172.714 122.875 172.621 122.722 172.568C121.997 172.316 121.149 172.471 120.554 172.991L120.49 172.969L121.036 172.084L119.872 171.681L116.436 177.251ZM123.161 179.72C124.51 180.188 125.834 179.92 126.667 179.108L125.641 178.528C125.1 178.979 124.411 179.066 123.726 178.828C122.695 178.471 122.374 177.629 123.005 176.544L127.401 178.069L127.638 177.684C128.88 175.671 128.029 174.421 126.628 173.935C124.905 173.338 123.04 174.126 121.984 175.838C120.916 177.568 121.338 179.087 123.161 179.72ZM123.51 175.733C124.046 174.959 125.105 174.494 126.083 174.834C127.017 175.157 127.244 175.993 126.723 176.847L123.51 175.733ZM126.498 173.076L127.461 173.409L129.74 172.17L128.472 171.73L126.498 173.076ZM129.468 181.902C130.595 182.293 131.421 181.826 131.857 181.546L131.958 181.581L131.423 182.448L132.599 182.856L137.181 175.428L135.977 175.011L134.275 177.771L134.202 177.746C134.197 177.326 134.176 176.552 133.024 176.153C131.531 175.635 129.776 176.317 128.662 178.123C127.55 179.925 127.966 181.381 129.468 181.902ZM130.304 181.069C129.229 180.697 129.195 179.65 129.884 178.533C130.567 177.427 131.627 176.787 132.714 177.163C133.765 177.528 133.852 178.496 133.134 179.66C132.411 180.831 131.343 181.43 130.304 181.069ZM134.317 183.451L135.521 183.869L138.958 178.298L137.754 177.881L134.317 183.451ZM138.892 177.232C139.307 177.376 139.832 177.206 140.051 176.85C140.271 176.495 140.106 176.081 139.691 175.937C139.272 175.792 138.749 175.967 138.529 176.323C138.31 176.678 138.473 177.087 138.892 177.232ZM143.464 179.861L142.196 179.421L143.019 178.086L141.815 177.669L140.992 179.004L140.086 178.689L139.549 179.56L140.455 179.874L138.425 183.163C137.797 184.174 138.353 184.961 139.314 185.272C139.699 185.401 139.997 185.425 140.167 185.427L140.502 184.456C140.413 184.442 140.243 184.423 140.05 184.356C139.66 184.221 139.381 183.983 139.768 183.356L141.659 180.291L142.927 180.731L143.464 179.861ZM143.828 186.886C145.571 187.49 147.42 186.736 148.483 185.013C149.552 183.279 149.122 181.735 147.379 181.13C145.636 180.526 143.787 181.28 142.717 183.014C141.655 184.736 142.085 186.281 143.828 186.886ZM144.394 185.977C143.254 185.582 143.275 184.502 143.935 183.432C144.593 182.366 145.684 181.643 146.824 182.038C147.955 182.43 147.927 183.521 147.269 184.588C146.609 185.658 145.525 186.369 144.394 185.977Z" fill="white"/>
<path d="M413.256 130.043L427.854 135.105L413.277 158.732L398.679 153.67L413.256 130.043Z" fill="#FF8AA2"/>
<path d="M406.894 142.178C409.856 137.378 414.985 133.988 420.531 132.566C418.941 129.582 416.119 127.134 412.227 125.785C403.004 122.587 391.397 126.721 386.272 135.028C381.147 143.335 384.461 152.642 393.683 155.84C397.576 157.19 401.891 157.217 405.954 156.193C403.782 152.146 403.932 146.979 406.894 142.178Z" fill="#FD6887"/>
<path d="M440.26 153.747C435.135 162.054 423.528 166.188 414.305 162.991C410.413 161.641 407.591 159.193 406.001 156.209C411.593 154.804 416.676 151.398 419.638 146.597C422.6 141.797 422.724 136.671 420.578 132.582C424.64 131.559 428.956 131.585 432.848 132.935C442.071 136.133 445.36 145.482 440.26 153.748L440.26 153.747Z" fill="#FD6887"/>
<rect width="401" height="30" transform="matrix(0.944817 0.327599 -0.525072 0.851058 81.146 67.325)" fill="#F7F8FD"/>
<defs>
<linearGradient id="paint0_linear_2_430" x1="70.3448" y1="-36.8921" x2="112.395" y2="290.643" gradientUnits="userSpaceOnUse">
<stop stop-color="#E23B51"/>
<stop offset="1" stop-color="#8A3B45"/>
</linearGradient>
</defs>
</svg>
