<svg width="429" height="366" viewBox="0 0 429 366" fill="none" xmlns="http://www.w3.org/2000/svg">
<rect width="400" height="233.651" rx="10" transform="matrix(0.938191 -0.346117 0.22937 0.973339 0 138.447)" fill="url(#paint0_linear_2_450)"/>
<mask id="mask0_2_450" style="mask-type:alpha" maskUnits="userSpaceOnUse" x="0" y="0" width="429" height="366">
<rect width="400" height="233.651" transform="matrix(0.938191 -0.346117 0.22937 0.973339 0 138.447)" fill="#ED713C"/>
</mask>
<g mask="url(#mask0_2_450)">
<ellipse opacity="0.1" cx="203.81" cy="143.492" rx="203.81" ry="143.492" transform="matrix(0.938191 -0.346117 0.22937 0.973339 -132.898 321.819)" fill="#333333"/>
<ellipse opacity="0.08" cx="203.81" cy="143.492" rx="203.81" ry="143.492" transform="matrix(0.938191 -0.346117 0.22937 0.973339 113.516 -94.2002)" fill="#333333"/>
</g>
<path d="M350.056 220.437C352.262 219.623 353.114 217.278 352.349 214.031C351.589 210.808 349.837 209.419 347.65 210.226C345.458 211.035 344.592 213.385 345.348 216.614C346.112 219.856 347.844 221.247 350.056 220.437ZM349.752 219.145C348.459 219.621 347.364 218.563 346.78 216.086C346.203 213.616 346.661 211.969 347.949 211.494C349.231 211.021 350.335 212.092 350.917 214.56C351.501 217.037 351.039 218.67 349.752 219.145ZM355.704 218.174L357.211 217.618L359.344 207.501L359.032 206.175L352.716 208.505L353.018 209.787L357.841 208.008L357.858 208.08L355.704 218.174ZM364.67 203.59L363.425 204.049L363.142 217.05L364.388 216.591L364.67 203.59ZM368.75 213.361L375.038 211.042L374.735 209.759L370.435 211.346L370.418 211.273L371.83 208.511C373.147 206.032 373.44 204.972 373.179 203.864C372.804 202.272 371.266 201.514 369.466 202.178C367.679 202.837 366.656 204.519 367.083 206.329L368.459 205.821C368.203 204.758 368.701 203.817 369.732 203.437C370.702 203.079 371.585 203.426 371.818 204.414C372.024 205.289 371.669 206.104 370.908 207.61L368.495 212.277L368.75 213.361ZM380.641 209.122C382.642 208.404 383.616 206.425 383.163 204.525C382.72 202.627 381.071 201.757 379.415 202.368C378.407 202.74 377.654 203.565 377.361 204.583L377.291 204.609C376.766 202.357 377.272 200.718 378.671 200.202C379.59 199.863 380.305 200.23 380.695 200.981L382.118 200.456C381.529 198.969 380.07 198.266 378.363 198.895C376.143 199.715 375.224 202.205 376.036 205.65C376.891 209.301 378.94 209.733 380.641 209.122ZM380.34 207.865C379.23 208.275 378.19 207.606 377.928 206.493C377.672 205.383 378.292 204.102 379.393 203.696C380.485 203.294 381.502 203.912 381.768 205.061C382.049 206.23 381.432 207.462 380.34 207.865Z" fill="white"/>
<path opacity="0.9" d="M85.6128 317.963C87.7211 317.186 88.4971 314.885 87.7342 311.647C86.977 308.434 85.3032 307.011 83.2136 307.782C81.124 308.553 80.335 310.885 81.0922 314.098C81.8551 317.335 83.5046 318.741 85.6128 317.963ZM85.362 316.899C83.972 317.412 82.8195 316.264 82.2117 313.685C81.605 311.11 82.0793 309.337 83.4599 308.827C84.8405 308.318 86.0081 309.486 86.6148 312.06C87.2226 314.64 86.7519 316.386 85.362 316.899ZM94.2911 314.762C96.3994 313.984 97.1753 311.683 96.4125 308.446C95.6553 305.233 93.9815 303.809 91.8918 304.58C89.8022 305.351 89.0133 307.683 89.7705 310.896C90.5334 314.134 92.1828 315.54 94.2911 314.762ZM94.0402 313.697C92.6503 314.21 91.4977 313.062 90.8899 310.483C90.2833 307.909 90.7575 306.135 92.1382 305.626C93.5188 305.116 94.6864 306.284 95.293 308.859C95.9008 311.438 95.4302 313.184 94.0402 313.697ZM102.969 311.56C105.078 310.782 105.854 308.482 105.091 305.244C104.334 302.031 102.66 300.608 100.57 301.379C98.4805 302.15 97.6916 304.482 98.4488 307.695C99.2116 310.932 100.861 312.338 102.969 311.56ZM102.719 310.496C101.329 311.008 100.176 309.861 99.5682 307.282C98.9615 304.707 99.4358 302.933 100.816 302.424C102.197 301.915 103.365 303.083 103.971 305.657C104.579 308.236 104.108 309.983 102.719 310.496ZM111.648 308.359C113.756 307.581 114.532 305.28 113.769 302.043C113.012 298.83 111.338 297.406 109.248 298.177C107.159 298.948 106.37 301.28 107.127 304.493C107.89 307.73 109.539 309.136 111.648 308.359ZM111.397 307.294C110.007 307.807 108.854 306.659 108.246 304.08C107.64 301.506 108.114 299.732 109.495 299.222C110.875 298.713 112.043 299.881 112.65 302.456C113.257 305.035 112.787 306.781 111.397 307.294ZM124.489 303.621C126.597 302.843 127.373 300.543 126.61 297.305C125.853 294.092 124.179 292.669 122.09 293.44C120 294.211 119.211 296.542 119.969 299.756C120.731 302.993 122.381 304.399 124.489 303.621ZM124.238 302.556C122.848 303.069 121.696 301.922 121.088 299.343C120.481 296.768 120.956 294.994 122.336 294.485C123.717 293.976 124.884 295.144 125.491 297.718C126.099 300.297 125.628 302.044 124.238 302.556ZM133.167 300.42C135.276 299.642 136.052 297.341 135.289 294.104C134.532 290.891 132.858 289.467 130.768 290.238C128.679 291.009 127.89 293.341 128.647 296.554C129.41 299.791 131.059 301.197 133.167 300.42ZM132.917 299.355C131.527 299.868 130.374 298.72 129.766 296.141C129.16 293.567 129.634 291.793 131.014 291.283C132.395 290.774 133.563 291.942 134.169 294.517C134.777 297.096 134.307 298.842 132.917 299.355ZM141.846 297.218C143.954 296.44 144.73 294.139 143.967 290.902C143.21 287.689 141.536 286.266 139.446 287.037C137.357 287.807 136.568 290.139 137.325 293.352C138.088 296.59 139.737 297.996 141.846 297.218ZM141.595 296.153C140.205 296.666 139.052 295.519 138.444 292.939C137.838 290.365 138.312 288.591 139.693 288.082C141.073 287.572 142.241 288.741 142.848 291.315C143.455 293.894 142.985 295.641 141.595 296.153ZM150.524 294.016C152.632 293.239 153.408 290.938 152.645 287.7C151.888 284.487 150.214 283.064 148.125 283.835C146.035 284.606 145.246 286.938 146.003 290.151C146.766 293.388 148.416 294.794 150.524 294.016ZM150.273 292.952C148.883 293.465 147.731 292.317 147.123 289.738C146.516 287.163 146.99 285.39 148.371 284.88C149.752 284.371 150.919 285.539 151.526 288.113C152.134 290.693 151.663 292.439 150.273 292.952ZM163.365 289.279C165.474 288.501 166.25 286.2 165.487 282.963C164.73 279.75 163.056 278.327 160.966 279.098C158.877 279.868 158.088 282.2 158.845 285.413C159.608 288.651 161.257 290.057 163.365 289.279ZM163.115 288.214C161.725 288.727 160.572 287.58 159.964 285C159.358 282.426 159.832 280.652 161.212 280.143C162.593 279.633 163.761 280.802 164.367 283.376C164.975 285.955 164.505 287.701 163.115 288.214ZM172.044 286.077C174.152 285.299 174.928 282.999 174.165 279.761C173.408 276.548 171.734 275.125 169.644 275.896C167.555 276.667 166.766 278.999 167.523 282.212C168.286 285.449 169.935 286.855 172.044 286.077ZM171.793 285.013C170.403 285.525 169.25 284.378 168.643 281.799C168.036 279.224 168.51 277.451 169.891 276.941C171.271 276.432 172.439 277.6 173.046 280.174C173.653 282.754 173.183 284.5 171.793 285.013ZM180.722 282.876C182.83 282.098 183.606 279.797 182.843 276.56C182.086 273.347 180.412 271.923 178.323 272.694C176.233 273.465 175.444 275.797 176.201 279.01C176.964 282.248 178.614 283.653 180.722 282.876ZM180.471 281.811C179.081 282.324 177.929 281.176 177.321 278.597C176.714 276.023 177.188 274.249 178.569 273.74C179.95 273.23 181.117 274.398 181.724 276.973C182.332 279.552 181.861 281.298 180.471 281.811ZM189.4 279.674C191.509 278.896 192.284 276.596 191.522 273.358C190.764 270.145 189.091 268.722 187.001 269.493C184.911 270.264 184.122 272.595 184.88 275.809C185.643 279.046 187.292 280.452 189.4 279.674ZM189.149 278.61C187.759 279.122 186.607 277.975 185.999 275.396C185.392 272.821 185.867 271.047 187.247 270.538C188.628 270.029 189.796 271.197 190.402 273.771C191.01 276.35 190.539 278.097 189.149 278.61ZM202.242 274.937C204.35 274.159 205.126 271.858 204.363 268.621C203.606 265.408 201.932 263.984 199.842 264.755C197.753 265.526 196.964 267.858 197.721 271.071C198.484 274.308 200.133 275.714 202.242 274.937ZM201.991 273.872C200.601 274.385 199.448 273.237 198.841 270.658C198.234 268.084 198.708 266.31 200.089 265.801C201.469 265.291 202.637 266.459 203.244 269.034C203.851 271.613 203.381 273.359 201.991 273.872ZM210.92 271.735C213.028 270.957 213.804 268.657 213.041 265.419C212.284 262.206 210.61 260.783 208.521 261.554C206.431 262.325 205.642 264.656 206.399 267.87C207.162 271.107 208.812 272.513 210.92 271.735ZM210.669 270.67C209.279 271.183 208.127 270.036 207.519 267.457C206.912 264.882 207.386 263.108 208.767 262.599C210.148 262.09 211.315 263.258 211.922 265.832C212.53 268.411 212.059 270.158 210.669 270.67ZM219.598 268.533C221.707 267.756 222.483 265.455 221.72 262.218C220.962 259.004 219.289 257.581 217.199 258.352C215.109 259.123 214.32 261.455 215.078 264.668C215.841 267.905 217.49 269.311 219.598 268.533ZM219.347 267.469C217.957 267.982 216.805 266.834 216.197 264.255C215.59 261.681 216.065 259.907 217.445 259.397C218.826 258.888 219.994 260.056 220.6 262.631C221.208 265.21 220.737 266.956 219.347 267.469ZM228.277 265.332C230.385 264.554 231.161 262.253 230.398 259.016C229.641 255.803 227.967 254.38 225.877 255.151C223.788 255.921 222.999 258.253 223.756 261.466C224.519 264.704 226.168 266.11 228.277 265.332ZM228.026 264.267C226.636 264.78 225.483 263.633 224.875 261.053C224.269 258.479 224.743 256.705 226.124 256.196C227.504 255.686 228.672 256.855 229.278 259.429C229.886 262.008 229.416 263.755 228.026 264.267Z" fill="white"/>
<path d="M313.631 60.3237L328.126 54.9761L334.494 81.9978L319.999 87.3455L313.631 60.3237Z" fill="#FF5F00"/>
<path d="M313.402 104.563L312.727 101.698C312.469 100.6 311.655 100.122 310.551 100.529C309.999 100.733 309.446 101.145 309.178 101.918C308.732 101.512 308.204 101.395 307.514 101.65C307.054 101.82 306.627 102.132 306.383 102.793L306.248 102.221L305.282 102.577L306.362 107.16L307.328 106.804L306.732 104.273C306.54 103.462 306.865 102.927 307.509 102.689C308.153 102.452 308.577 102.763 308.757 103.526L309.353 106.057L310.319 105.7L309.723 103.17C309.532 102.358 309.902 101.807 310.5 101.586C311.144 101.348 311.568 101.659 311.748 102.423L312.344 104.953L313.402 104.563ZM326.634 94.6999L325.069 95.2771L324.743 93.8926L323.777 94.2491L324.103 95.6336L323.228 95.9561L323.442 96.863L324.316 96.5405L324.811 98.6414C325.059 99.6918 325.619 100.159 326.724 99.752C327.138 99.5992 327.564 99.2864 327.842 98.9765L327.363 98.219C327.132 98.5117 326.821 98.6784 326.591 98.7633C326.131 98.933 325.879 98.7145 325.767 98.2369L325.283 96.184L326.847 95.6068L326.634 94.6999ZM334.802 91.5823C334.25 91.786 333.95 92.2085 333.809 92.6753L333.674 92.1024L332.708 92.4589L333.788 97.0421L334.754 96.6855L334.147 94.1076C333.967 93.3438 334.188 92.7953 334.786 92.5746C334.97 92.5067 335.211 92.4696 335.407 92.4493L335.458 91.3927C335.263 91.4128 334.986 91.5146 334.802 91.5825L334.802 91.5823ZM322.536 96.6267C321.997 96.4622 321.319 96.5568 320.629 96.8114C319.525 97.2188 318.923 98.0633 319.137 98.9704C319.317 99.7344 319.971 99.9602 320.971 99.747L321.442 99.6251C321.971 99.5336 322.281 99.575 322.337 99.8138C322.416 100.148 322.104 100.522 321.459 100.76C320.815 100.998 320.253 100.946 319.874 100.826L319.594 101.76C320.19 101.955 320.926 101.891 321.616 101.636C322.904 101.161 323.495 100.269 323.292 99.4095C323.101 98.5978 322.401 98.3888 321.447 98.5853L320.976 98.7072C320.55 98.8122 320.206 98.8357 320.138 98.5493C320.059 98.215 320.336 97.9053 320.843 97.7185C321.395 97.5148 322.003 97.5496 322.313 97.5911L322.536 96.6267ZM348.102 86.6762C347.549 86.88 347.249 87.3022 347.108 87.769L346.973 87.1962L346.007 87.5527L347.087 92.1358L348.053 91.7793L347.446 89.2013C347.266 88.4375 347.487 87.8889 348.085 87.6683C348.269 87.6003 348.511 87.5633 348.706 87.543L348.757 86.4864C348.562 86.5065 348.286 86.6083 348.102 86.6762ZM336.331 93.6131C336.658 94.9975 337.814 95.6606 339.241 95.1343C339.885 94.8966 340.311 94.5838 340.681 94.0321L340.03 93.3902C339.729 93.8125 339.395 94.0914 338.981 94.2442C338.199 94.5328 337.511 94.1636 337.298 93.2565C337.095 92.3973 337.512 91.6205 338.283 91.2843C338.698 91.1315 339.099 91.1388 339.535 91.2896L339.804 90.3083C339.254 90.0959 338.76 90.1225 338.116 90.3602C336.689 90.8865 336.005 92.2286 336.331 93.6131ZM345.259 90.3195L344.719 88.028L343.752 88.3845L343.887 88.9573C343.464 88.6467 342.948 88.5776 342.349 88.7983C341.107 89.2567 340.377 90.6158 340.703 92.0002C341.029 93.3847 342.232 94.0308 343.474 93.5724C344.118 93.3348 344.523 92.9264 344.697 92.3948L344.832 92.9676L345.799 92.6111L345.259 90.3195ZM341.715 91.6268C341.524 90.8152 341.873 89.9601 342.701 89.6546C343.483 89.3659 344.182 89.7829 344.384 90.6421C344.576 91.4537 344.181 92.3258 343.398 92.6144C342.559 92.8721 341.907 92.4384 341.715 91.6268ZM329.602 93.5009C328.314 93.9763 327.618 95.2706 327.956 96.7029C328.293 98.1352 329.439 98.7504 330.773 98.258C331.418 98.0204 332.017 97.5917 332.422 96.9754L331.793 96.4291C331.492 96.8513 331.077 97.212 330.617 97.3818C330.019 97.6025 329.353 97.5368 329.024 96.7759L332.291 95.5705L332.201 95.1888C331.898 93.6916 330.845 93.0425 329.602 93.501L329.602 93.5009ZM329.805 94.3602C330.403 94.1395 330.907 94.3687 331.168 95.051L328.867 95.8998C328.813 95.2452 329.115 94.6148 329.805 94.3602ZM354.14 87.043L353.173 82.9373L352.206 83.2938L352.769 85.6808C352.345 85.3702 351.829 85.3011 351.231 85.5218C349.988 85.9802 349.258 87.3393 349.584 88.7237C349.911 90.1082 351.113 90.7543 352.356 90.2959C353 90.0582 353.404 89.6499 353.579 89.1183L353.714 89.6911L354.68 89.3346L354.14 87.043ZM350.597 88.3502C350.406 87.5386 350.754 86.6836 351.583 86.378C352.365 86.0894 353.063 86.5063 353.266 87.3656C353.457 88.1772 353.062 89.0492 352.28 89.3378C351.44 89.5956 350.788 89.1618 350.597 88.3502ZM318.292 100.268L317.752 97.9764L316.786 98.3329L316.921 98.9058C316.497 98.5951 315.981 98.5261 315.383 98.7468C314.14 99.2052 313.41 100.564 313.737 101.949C314.063 103.333 315.265 103.979 316.508 103.521C317.152 103.283 317.556 102.875 317.731 102.343L317.866 102.916L318.832 102.56L318.292 100.268ZM314.703 101.592C314.512 100.781 314.86 99.9255 315.689 99.6199C316.471 99.3313 317.17 99.7482 317.372 100.607C317.563 101.419 317.168 102.291 316.386 102.58C315.547 102.838 314.894 102.404 314.703 101.592Z" fill="white"/>
<path d="M317.735 73.4953C316.441 68.0051 317.778 62.2186 320.855 57.6586C317.508 56.4025 313.639 56.3253 309.773 57.7513C300.616 61.1298 295.018 71.5493 297.257 81.05C299.496 90.5505 308.716 95.5038 317.874 92.1254C321.739 90.6994 324.956 88.0077 327.223 84.6804C322.672 82.9862 319.029 78.9855 317.735 73.4953Z" fill="#E51D37"/>
<path d="M350.867 61.2721C353.106 70.7726 347.509 81.1924 338.351 84.5708C334.486 85.9968 330.616 85.9196 327.269 84.6634C330.392 80.0865 331.683 74.317 330.39 68.8268C329.096 63.3365 325.463 59.3836 320.901 57.6416C323.168 54.3145 326.385 51.6228 330.251 50.1968C339.408 46.8183 348.64 51.8192 350.867 61.272L350.867 61.2721Z" fill="#F79E1B"/>
<path d="M50.1271 179.3L47.1131 166.511L51.0479 165.059L58.7591 173.869L58.9786 173.788L56.4519 163.066L58.7148 162.231L61.7287 175.02L57.7771 176.478L50.0659 167.669L49.8295 167.756L52.3562 178.478L50.1271 179.3ZM63.376 162.834C62.9144 163.005 62.5421 163.009 62.2591 162.846C61.9847 162.668 61.802 162.387 61.7112 162.001C61.6204 161.616 61.653 161.261 61.8091 160.937C61.9765 160.608 62.291 160.359 62.7525 160.189C63.2029 160.023 63.5639 160.023 63.8356 160.189C64.1186 160.351 64.3055 160.625 64.3963 161.011C64.4871 161.396 64.4502 161.759 64.2856 162.099C64.1295 162.423 63.8263 162.668 63.376 162.834ZM65.0249 173.804L63.2125 166.113L61.929 166.586L61.4996 164.764L65.1304 163.425L67.3723 172.938L65.0249 173.804ZM70.0776 171.94L67.0637 159.151L69.411 158.285L71.2648 166.151L73.7126 160.259L76.1612 159.355L73.9908 164.555L79.1461 168.595L76.4948 169.573L72.3726 166.257L71.3763 166.624L72.4249 171.074L70.0776 171.94ZM84.6895 166.912C83.6087 167.31 82.6431 167.419 81.7927 167.238C80.9396 167.044 80.2279 166.647 79.6577 166.045C79.0988 165.438 78.7202 164.715 78.5221 163.874L78.4354 163.506C78.2289 162.63 78.2346 161.745 78.4525 160.852C78.6817 159.955 79.1141 159.142 79.7498 158.412C80.3968 157.679 81.2437 157.119 82.2908 156.732C83.3265 156.35 84.2696 156.25 85.12 156.431C85.9817 156.609 86.6976 156.998 87.2678 157.6C87.8492 158.198 88.2432 158.935 88.4496 159.811L88.5363 160.179C88.7345 161.02 88.7246 161.887 88.5067 162.78C88.3001 163.669 87.8803 164.484 87.2474 165.225C86.6117 165.955 85.7591 166.517 84.6895 166.912ZM84.1982 164.827C85.0538 164.511 85.6408 163.99 85.959 163.263C86.2857 162.52 86.3472 161.717 86.1435 160.853C85.9399 159.988 85.5342 159.357 84.9264 158.959C84.3187 158.561 83.6039 158.514 82.7821 158.817C81.949 159.125 81.3634 159.652 81.0254 160.398C80.6875 161.145 80.6203 161.951 80.824 162.815C81.0277 163.679 81.4221 164.315 82.0073 164.721C82.601 165.111 83.3313 165.146 84.1982 164.827ZM91.7834 163.933L89.1988 152.965L88.0505 153.389L87.6211 151.567L91.1168 150.277L94.1307 163.067L91.7834 163.933ZM99.469 161.364C98.4558 161.738 97.5819 161.768 96.8473 161.455C96.124 161.138 95.6481 160.495 95.4197 159.525C95.1747 158.486 95.3547 157.588 95.9596 156.831C96.573 156.059 97.4933 155.447 98.7205 154.994L100.595 154.302L100.574 154.215C100.318 153.129 99.6612 152.781 98.603 153.171C98.3215 153.275 97.9851 153.405 97.5939 153.562C97.2026 153.719 96.807 153.884 96.4072 154.057C96.0159 154.214 95.6654 154.363 95.3557 154.502L94.8685 152.435C95.243 152.259 95.6921 152.061 96.2158 151.843C96.7507 151.62 97.2433 151.426 97.6936 151.259C99.1009 150.74 100.229 150.648 101.079 150.982C101.937 151.3 102.522 152.119 102.833 153.439L104.224 159.343L102.367 160.028L101.937 158.206C101.845 159.738 101.023 160.791 99.469 161.364ZM99.7189 159.386C100.034 159.27 100.319 159.102 100.573 158.881C100.824 158.649 101.005 158.353 101.116 157.995C101.236 157.621 101.247 157.172 101.148 156.65L100.938 155.757L99.0294 156.461C98.489 156.66 98.1055 156.954 97.8788 157.342C97.6607 157.715 97.6025 158.117 97.7043 158.549C97.8089 158.993 98.0336 159.297 98.3784 159.462C98.7317 159.611 99.1785 159.586 99.7189 159.386ZM113.001 156.105L110.503 145.505L106.94 146.82L106.424 144.63L115.948 141.116L116.464 143.306L112.901 144.621L115.399 155.22L113.001 156.105ZM123.735 152.507C122.947 152.798 122.221 152.913 121.558 152.853C120.907 152.788 120.329 152.595 119.825 152.274C119.329 151.936 118.911 151.512 118.571 151.003C118.242 150.49 118.006 149.929 117.863 149.322L117.784 148.989C117.636 148.358 117.588 147.716 117.642 147.061C117.707 146.402 117.876 145.769 118.149 145.16C118.433 144.548 118.83 144.001 119.341 143.521C119.849 143.029 120.48 142.643 121.235 142.365C122.225 142 123.106 141.922 123.878 142.133C124.647 142.331 125.287 142.736 125.798 143.348C126.318 143.943 126.677 144.661 126.875 145.502L127.081 146.378L120.191 148.92C120.446 149.639 120.824 150.153 121.326 150.463C121.838 150.769 122.483 150.779 123.26 150.492C123.823 150.285 124.257 149.997 124.562 149.631C124.876 149.249 125.042 148.864 125.061 148.476L127.222 147.678C127.251 148.734 126.958 149.699 126.344 150.573C125.73 151.447 124.86 152.092 123.735 152.507ZM121.709 144.38C121.045 144.625 120.561 145.013 120.258 145.544C119.955 146.075 119.827 146.7 119.874 147.419L124.484 145.718C124.234 145.073 123.873 144.629 123.399 144.385C122.937 144.137 122.374 144.135 121.709 144.38ZM133.422 148.895C132.161 149.36 131.105 149.451 130.255 149.168C129.414 148.869 128.861 148.235 128.596 147.267L130.707 146.488C130.809 146.818 131.05 147.06 131.428 147.212C131.815 147.349 132.346 147.292 133.022 147.043C133.574 146.84 133.994 146.57 134.282 146.236C134.57 145.901 134.671 145.552 134.586 145.19C134.512 144.875 134.325 144.677 134.024 144.598C133.733 144.502 133.274 144.531 132.65 144.686L131.819 144.897C130.755 145.162 129.89 145.152 129.223 144.865C128.567 144.573 128.143 144.019 127.95 143.201C127.799 142.559 127.828 141.958 128.039 141.397C128.247 140.826 128.6 140.327 129.1 139.902C129.608 139.46 130.222 139.107 130.942 138.841C132.068 138.426 133.042 138.352 133.864 138.62C134.683 138.877 135.225 139.489 135.49 140.458L133.379 141.236C133.268 140.922 133.039 140.702 132.691 140.576C132.355 140.446 131.911 140.483 131.359 140.687C130.864 140.87 130.504 141.11 130.281 141.408C130.057 141.707 129.983 142.013 130.057 142.329C130.129 142.632 130.291 142.827 130.543 142.911C130.796 142.996 131.182 142.974 131.702 142.845L132.534 142.634C133.631 142.356 134.548 142.354 135.286 142.628C136.023 142.902 136.492 143.465 136.693 144.318C136.842 144.948 136.802 145.56 136.575 146.151C136.356 146.727 135.978 147.254 135.442 147.731C134.906 148.208 134.232 148.596 133.422 148.895ZM139.411 146.362L136.827 135.394L135.678 135.818L135.249 133.996L138.745 132.706L141.759 145.496L139.411 146.362ZM147.097 143.793C146.084 144.167 145.21 144.197 144.475 143.884C143.752 143.567 143.276 142.924 143.048 141.954C142.803 140.915 142.983 140.017 143.587 139.26C144.201 138.488 145.121 137.876 146.348 137.423L148.223 136.732L148.202 136.644C147.946 135.558 147.289 135.21 146.231 135.6C145.949 135.704 145.613 135.834 145.222 135.991C144.83 136.149 144.435 136.314 144.035 136.486C143.644 136.643 143.293 136.792 142.984 136.931L142.496 134.864C142.871 134.688 143.32 134.49 143.844 134.272C144.379 134.049 144.871 133.855 145.321 133.689C146.729 133.169 147.857 133.077 148.707 133.411C149.565 133.729 150.15 134.548 150.461 135.868L151.852 141.772L149.994 142.457L149.565 140.635C149.473 142.167 148.651 143.22 147.097 143.793ZM147.347 141.816C147.662 141.699 147.947 141.531 148.201 141.31C148.452 141.078 148.633 140.782 148.744 140.424C148.864 140.05 148.875 139.601 148.776 139.079L148.566 138.186L146.657 138.89C146.117 139.089 145.733 139.383 145.507 139.771C145.289 140.144 145.23 140.546 145.332 140.978C145.437 141.422 145.661 141.726 146.006 141.891C146.36 142.04 146.806 142.015 147.347 141.816Z" fill="white"/>
<rect width="41.9048" height="27.9365" rx="5" transform="matrix(0.938191 -0.346117 0.22937 0.973339 60.7893 231.556)" fill="url(#paint1_radial_2_450)"/>
<path fill-rule="evenodd" clip-rule="evenodd" d="M80.5104 224.575L77.8167 233.292C77.8167 233.292 81.0292 238.866 80.5378 244.84L86.79 251.223L89.2744 241.617C89.2744 241.617 86.4805 237.82 86.5533 230.069C86.5533 230.069 80.5104 224.575 80.5104 224.575Z" stroke="#C7C7B6" stroke-width="1.3" stroke-linejoin="bevel"/>
<path d="M62.6046 239.259L77.8936 233.619" stroke="#C7C7B6" stroke-width="1.3" stroke-linejoin="bevel"/>
<path d="M86.193 230.557L101.919 224.755" stroke="#C7C7B6" stroke-width="1.3" stroke-linejoin="bevel"/>
<path d="M65.1676 250.136L80.4566 244.495" stroke="#C7C7B6" stroke-width="1.3" stroke-linejoin="bevel"/>
<path d="M88.7557 241.433L104.482 235.632" stroke="#C7C7B6" stroke-width="1.3" stroke-linejoin="bevel"/>
<defs>
<linearGradient id="paint0_linear_2_450" x1="70.3448" y1="-36.8922" x2="112.396" y2="290.644" gradientUnits="userSpaceOnUse">
<stop stop-color="#E23B51"/>
<stop offset="1" stop-color="#8A3B45"/>
</linearGradient>
<radialGradient id="paint1_radial_2_450" cx="0" cy="0" r="1" gradientUnits="userSpaceOnUse" gradientTransform="translate(24.0639 10.1763) rotate(141.302) scale(28.4063 28.1909)">
<stop stop-color="white"/>
<stop offset="1" stop-color="#DDDCDA"/>
</radialGradient>
</defs>
</svg>
